<?xml version="1.0" standalone="no"?>
<!DOCTYPE svg PUBLIC "-//W3C//DTD SVG 20010904//EN"
 "http://www.w3.org/TR/2001/REC-SVG-20010904/DTD/svg10.dtd">
<svg version="1.0" xmlns="http://www.w3.org/2000/svg"
 width="1064.000000pt" height="1064.000000pt" viewBox="0 0 1064.000000 1064.000000"
 preserveAspectRatio="xMidYMid meet">
<metadata>
Created by potrace 1.11, written by Peter Selinger 2001-2013
</metadata>
<g transform="translate(0.000000,1064.000000) scale(0.100000,-0.100000)"
fill="#000000" stroke="none">
<path d="M1069 10636 c-2 -2 -24 -7 -49 -10 -25 -3 -60 -10 -77 -15 -18 -5
-33 -8 -33 -6 0 9 -177 -58 -245 -92 -119 -59 -206 -123 -310 -228 -105 -104
-171 -195 -231 -315 -37 -76 -90 -226 -99 -281 -3 -19 -10 -59 -15 -89 -5 -33
-9 -1748 -8 -4285 0 -4642 -5 -4297 59 -4490 62 -187 148 -324 294 -471 143
-143 283 -230 473 -294 186 -62 -121 -58 4502 -58 l4235 0 110 23 c254 54 431
150 611 329 144 145 241 304 298 488 59 187 55 -109 55 4488 l0 4235 -24 110
c-103 494 -483 862 -980 949 -68 12 -725 14 -4321 15 -2332 1 -4243 -1 -4245
-3z"/>
</g>
</svg>
